<svg viewBox="0 0 311 311.099" xmlns="http://www.w3.org/2000/svg" fill="#daeaf2"><path d="M16.043 311.098c-4.094 0-8.191-1.555-11.305-4.692-6.25-6.25-6.25-16.386 0-22.636L283.797 4.71c6.254-6.253 16.387-6.253 22.637 0 6.25 6.25 6.25 16.384 0 22.634L27.37 306.406a15.952 15.952 0 01-11.328 4.692zm0 0"/><path d="M295.125 311.098c-4.094 0-8.191-1.555-11.305-4.692L4.738 27.324c-6.25-6.254-6.25-16.386 0-22.636s16.383-6.25 22.633 0L306.434 283.77c6.25 6.25 6.25 16.386 0 22.636a15.94 15.94 0 01-11.309 4.692zm0 0"/></svg>
