<?xml version="1.0" encoding="UTF-8" standalone="no"?>
<!DOCTYPE svg PUBLIC "-//W3C//DTD SVG 1.1//EN" "http://www.w3.org/Graphics/SVG/1.1/DTD/svg11.dtd">
<svg width="100%" height="100%" viewBox="0 0 7016 9934" version="1.1" xmlns="http://www.w3.org/2000/svg" xmlns:xlink="http://www.w3.org/1999/xlink" xml:space="preserve" xmlns:serif="http://www.serif.com/" style="fill-rule:evenodd;clip-rule:evenodd;stroke-linecap:round;stroke-linejoin:round;stroke-miterlimit:1.5;">
    <g transform="matrix(-1.02974,0,0,1.02974,4866.22,184.749)">
        <path d="M4561.9,709.363C4561.9,581.581 4458.15,477.838 4330.37,477.838L2576.79,477.838C2449.01,477.838 2345.26,581.581 2345.26,709.363L2345.26,1172.41C2345.26,1300.19 2449.01,1403.93 2576.79,1403.93L3065.67,1403.93L2788.59,1800.83L3398.16,1403.93L4330.37,1403.93C4458.15,1403.93 4561.9,1300.19 4561.9,1172.41L4561.9,709.363Z" style="fill:white;stroke:black;stroke-width:28.96px;"/>
    </g>
    <g transform="matrix(1.7164,0,0,1.7164,-3603.62,-221.11)">
        <g transform="matrix(1,0,0,1,2398.75,826.201)">
            <text x="0px" y="0px" style="font-family:'BalooTamma-Regular', 'Baloo Tamma', cursive;font-size:125px;">Y</text>
        </g>
        <g transform="matrix(1,0,0,1,2465.5,826.201)">
            <text x="0px" y="0px" style="font-family:'BalooTamma-Regular', 'Baloo Tamma', cursive;font-size:125px;">aeh! Thank y</text>
        </g>
        <g transform="matrix(1,0,0,1,3183.62,826.201)">
            <text x="0px" y="0px" style="font-family:'BalooTamma-Regular', 'Baloo Tamma', cursive;font-size:125px;">ou!</text>
        </g>
    </g>
    <g transform="matrix(22.7437,3.50176,-3.50176,22.7437,-4790.58,-1174.79)">
        <path d="M442.705,36.527C442.705,36.527 426.866,23.076 413.978,37.498C405.91,46.526 411.778,61.512 402.199,66.023C392.619,70.533 400.334,73.05 400.334,73.05C400.334,73.05 391.194,76.227 396.665,80.307C396.665,80.307 387.589,82.467 393.962,89.324C393.962,89.324 386.604,92.61 395.22,97.905C395.22,97.905 388.114,102.908 397.946,105.896C407.778,108.885 435.406,101.748 435.406,101.748L442.705,36.527Z" style="fill:rgb(234,178,0);fill-rule:nonzero;"/>
    </g>
    <g transform="matrix(-23.6033,0,0,23.6033,6807.57,-252.367)">
        <path d="M97.13,419.969C64.603,419.969 38.235,414.639 38.235,408.065C38.235,403.347 51.81,399.271 71.493,397.344L71.524,397.958L59.154,405.839L84.096,399.66C84.332,398.573 84.563,397.49 84.785,396.422C88.767,396.25 92.895,396.16 97.13,396.16C103.902,396.16 110.406,396.391 116.462,396.816L115.935,402.871L102.598,408.975L128.153,406.285C129.149,403.571 130.09,400.918 130.979,398.321C146.126,400.475 156.026,404.036 156.026,408.065C156.026,414.639 129.658,419.969 97.13,419.969Z" style="fill:rgb(218,217,218);fill-rule:nonzero;"/>
    </g>
    <g transform="matrix(-23.6033,0,0,23.6033,6807.57,-252.367)">
        <path d="M85.682,299.829C85.682,299.829 99.335,329.53 84.096,399.66L59.154,405.839L71.524,397.958L66.721,304.038L85.682,299.829Z" style="fill:rgb(247,161,153);fill-rule:nonzero;"/>
    </g>
    <g transform="matrix(-23.6033,0,0,23.6033,6807.57,-252.367)">
        <path d="M69.881,365.834L69.464,357.681C71.453,357.863 73.376,357.942 75.212,357.942L75.221,357.942C81.632,357.942 87.007,356.979 90.657,356.069C90.57,357.222 90.475,358.396 90.369,359.588C84.124,362.914 76.958,364.482 69.881,365.834Z" style="fill:rgb(237,144,135);fill-rule:nonzero;"/>
    </g>
    <g transform="matrix(-23.6033,0,0,23.6033,6807.57,-252.367)">
        <path d="M67.809,400.495C67.809,400.495 50.364,408.646 59.38,408.784C68.396,408.922 83.982,402.039 83.982,402.039L84.096,399.66C84.096,399.66 60.875,405.884 67.809,400.495Z" style="fill:rgb(45,35,52);fill-rule:nonzero;"/>
    </g>
    <g transform="matrix(-23.6033,0,0,23.6033,6807.57,-252.367)">
        <path d="M143.453,307.621C143.453,307.621 152.892,338.917 128.153,406.285L102.598,408.975L115.935,402.871L124.093,309.182L143.453,307.621Z" style="fill:rgb(247,161,153);fill-rule:nonzero;"/>
    </g>
    <g transform="matrix(-23.6033,0,0,23.6033,6807.57,-252.367)">
        <path d="M118.725,370.826L119.525,361.635L118.725,370.826Z" style="fill:rgb(207,206,208);fill-rule:nonzero;"/>
    </g>
    <g transform="matrix(-23.6033,0,0,23.6033,6807.57,-252.367)">
        <path d="M118.725,370.826L119.525,361.635C125.87,363.627 131.788,364.163 136.321,364.163C137.96,364.163 139.417,364.093 140.649,363.996C140.404,365.132 140.147,366.285 139.878,367.456C133.235,369.892 125.921,370.46 118.725,370.826Z" style="fill:rgb(237,144,135);fill-rule:nonzero;"/>
    </g>
    <g transform="matrix(-23.6033,0,0,23.6033,6807.57,-252.367)">
        <path d="M111.906,404.872C111.906,404.872 93.505,410.546 102.417,411.923C111.328,413.299 127.713,408.625 127.713,408.625L128.153,406.285C128.153,406.285 104.297,409.257 111.906,404.872Z" style="fill:rgb(45,35,52);fill-rule:nonzero;"/>
    </g>
    <g transform="matrix(-23.6033,0,0,23.6033,6807.57,-252.367)">
        <path d="M86.347,171.955L132.389,167.073C132.389,167.073 181.114,198.971 175.551,237.406C169.987,275.842 138.097,372.954 133.113,391.935C133.113,391.935 133.276,409.855 116.022,400.422L120.58,255.194L96.708,308.057C93.549,337.05 90.351,365.192 85.165,394.929C82.331,394.911 85.555,398.807 71.282,393.276C71.282,393.276 57.991,294.353 61.4,284.204C64.81,274.055 94.596,210.956 94.596,210.956L86.347,171.955Z" style="fill:rgb(250,195,0);fill-rule:nonzero;"/>
    </g>
    <g transform="matrix(-23.6033,0,0,23.6033,6807.57,-252.367)">
        <path d="M93.472,205.641L91.527,196.445L93.472,205.641Z" style="fill:rgb(207,206,208);fill-rule:nonzero;"/>
    </g>
    <g transform="matrix(-23.6033,0,0,23.6033,6807.57,-252.367)">
        <path d="M93.472,205.641L91.527,196.445C103.384,193.762 125.985,187.318 142.247,174.569C143.393,175.527 144.601,176.568 145.853,177.687C132.715,193.242 113.255,200.291 93.472,205.641Z" style="fill:rgb(76,58,25);fill-rule:nonzero;"/>
    </g>
    <g transform="matrix(-23.6033,0,0,23.6033,6807.57,-252.367)">
        <path d="M90.659,356.068C93.926,355.253 95.81,354.48 95.81,354.48L96.708,308.057L120.58,255.194L96.708,308.057L95.81,354.48C95.81,354.48 93.927,355.253 90.659,356.068Z" style="fill:rgb(207,206,208);fill-rule:nonzero;"/>
    </g>
    <g transform="matrix(-23.6033,0,0,23.6033,6807.57,-252.367)">
        <path d="M90.657,356.069L90.657,356.068L90.659,356.068C90.658,356.068 90.657,356.068 90.657,356.069Z" style="fill:rgb(237,144,135);fill-rule:nonzero;"/>
    </g>
    <g transform="matrix(-23.6033,0,0,23.6033,6807.57,-252.367)">
        <path d="M75.221,357.942C81.632,357.941 87.008,356.979 90.657,356.068L90.657,356.069C87.007,356.979 81.632,357.942 75.221,357.942Z" style="fill:rgb(195,124,120);fill-rule:nonzero;"/>
    </g>
    <g transform="matrix(-23.6033,0,0,23.6033,6807.57,-252.367)">
        <path d="M59.076,355.818C59.069,355.817 59.066,355.816 59.06,355.814C59.066,355.816 59.069,355.817 59.076,355.818ZM61.407,284.184C61.408,284.182 61.408,284.181 61.409,284.179C61.408,284.18 61.408,284.182 61.407,284.184ZM61.422,284.139C61.423,284.138 61.424,284.135 61.424,284.133C61.424,284.135 61.423,284.138 61.422,284.139ZM61.438,284.094C61.438,284.092 61.439,284.089 61.44,284.086C61.439,284.089 61.438,284.092 61.438,284.094ZM61.446,284.071C61.446,284.07 61.446,284.068 61.447,284.067C61.446,284.069 61.446,284.069 61.446,284.071ZM61.453,284.048C61.454,284.046 61.455,284.043 61.456,284.041C61.455,284.043 61.454,284.046 61.453,284.048ZM61.462,284.023C61.462,284.022 61.463,284.021 61.463,284.021C61.463,284.021 61.462,284.022 61.462,284.023ZM61.47,284C61.471,283.998 61.471,283.996 61.472,283.994C61.471,283.996 61.471,283.998 61.47,284ZM61.478,283.977C61.479,283.975 61.479,283.975 61.479,283.973C61.479,283.974 61.478,283.975 61.478,283.977ZM61.486,283.954C61.487,283.951 61.488,283.949 61.489,283.946C61.488,283.949 61.487,283.952 61.486,283.954ZM61.504,283.903C61.504,283.902 61.505,283.9 61.505,283.899C61.505,283.9 61.504,283.902 61.504,283.903ZM61.521,283.855C61.521,283.853 61.522,283.852 61.522,283.85C61.522,283.851 61.521,283.854 61.521,283.855ZM61.53,283.829L61.53,283.828L61.53,283.829ZM61.539,283.804L61.539,283.802L61.539,283.804ZM61.548,283.779L61.548,283.778L61.548,283.779ZM61.556,283.755C61.557,283.753 61.557,283.751 61.558,283.75C61.557,283.751 61.557,283.753 61.556,283.755ZM61.565,283.729C61.565,283.728 61.566,283.727 61.566,283.727C61.566,283.727 61.566,283.728 61.565,283.729ZM61.574,283.704C61.575,283.701 61.576,283.698 61.578,283.694C61.576,283.698 61.575,283.701 61.574,283.704ZM61.582,283.684C61.583,283.68 61.584,283.677 61.585,283.674C61.584,283.677 61.583,283.681 61.582,283.684ZM61.592,283.654C61.593,283.651 61.594,283.648 61.595,283.646C61.594,283.648 61.593,283.651 61.592,283.654ZM61.603,283.625L61.603,283.624L61.603,283.625ZM61.611,283.601C61.612,283.598 61.613,283.595 61.615,283.592C61.614,283.595 61.612,283.598 61.611,283.601ZM61.62,283.576C61.621,283.574 61.622,283.572 61.623,283.57C61.622,283.572 61.621,283.574 61.62,283.576ZM61.631,283.547C61.631,283.545 61.632,283.544 61.632,283.542C61.632,283.544 61.631,283.546 61.631,283.547ZM61.651,283.493C61.651,283.491 61.651,283.491 61.652,283.49C61.651,283.491 61.651,283.491 61.651,283.493ZM61.671,283.438L61.671,283.437L61.671,283.438ZM61.681,283.41C61.681,283.411 61.681,283.41 61.681,283.41ZM61.69,283.384C61.691,283.382 61.691,283.382 61.692,283.38C61.691,283.382 61.691,283.382 61.69,283.384ZM61.7,283.357C61.701,283.356 61.701,283.355 61.701,283.354C61.701,283.355 61.701,283.356 61.7,283.357ZM61.711,283.329C61.711,283.328 61.712,283.326 61.712,283.325C61.712,283.326 61.711,283.328 61.711,283.329ZM61.732,283.272C61.732,283.271 61.732,283.27 61.733,283.27C61.732,283.27 61.732,283.271 61.732,283.272ZM61.742,283.244C61.742,283.243 61.743,283.243 61.743,283.242L61.742,283.244ZM61.753,283.215L61.754,283.213C61.753,283.214 61.753,283.215 61.753,283.215ZM61.784,283.132C61.785,283.13 61.786,283.128 61.786,283.125C61.786,283.128 61.785,283.13 61.784,283.132ZM61.794,283.105C61.795,283.102 61.797,283.097 61.798,283.094C61.797,283.098 61.795,283.101 61.794,283.105ZM61.807,283.071C61.807,283.07 61.807,283.07 61.808,283.069C61.807,283.07 61.807,283.071 61.807,283.071ZM61.818,283.041L61.818,283.04L61.818,283.041ZM61.919,282.775C61.92,282.771 61.921,282.768 61.923,282.765C61.922,282.768 61.92,282.772 61.919,282.775ZM61.931,282.742C61.932,282.74 61.933,282.739 61.933,282.737C61.933,282.739 61.932,282.74 61.931,282.742ZM61.968,282.648C61.969,282.645 61.969,282.644 61.97,282.641C61.969,282.644 61.969,282.645 61.968,282.648ZM61.978,282.622C61.98,282.617 61.982,282.61 61.984,282.605C61.982,282.611 61.98,282.616 61.978,282.622ZM62.017,282.519C62.018,282.518 62.018,282.517 62.018,282.517L62.017,282.519ZM62.052,282.429C62.054,282.425 62.055,282.421 62.056,282.418C62.055,282.422 62.054,282.425 62.052,282.429ZM62.067,282.391C62.068,282.389 62.069,282.386 62.07,282.383C62.069,282.386 62.068,282.389 62.067,282.391ZM62.077,282.364C62.079,282.36 62.081,282.354 62.083,282.349C62.081,282.355 62.079,282.359 62.077,282.364ZM62.104,282.295C62.105,282.292 62.106,282.289 62.107,282.287C62.106,282.289 62.105,282.292 62.104,282.295ZM62.112,282.275C62.115,282.266 62.119,282.256 62.123,282.247C62.119,282.257 62.115,282.266 62.112,282.275ZM62.129,282.232C62.131,282.227 62.132,282.222 62.135,282.217C62.132,282.222 62.131,282.227 62.129,282.232ZM62.145,282.191C62.146,282.188 62.146,282.187 62.148,282.184C62.147,282.186 62.145,282.189 62.145,282.191ZM62.154,282.166C62.156,282.162 62.158,282.156 62.16,282.151C62.158,282.157 62.157,282.161 62.154,282.166ZM62.164,282.142C62.168,282.131 62.173,282.118 62.178,282.106C62.173,282.119 62.169,282.13 62.164,282.142ZM62.179,282.105C62.187,282.083 62.195,282.063 62.204,282.041C62.195,282.062 62.187,282.084 62.179,282.105ZM62.207,282.032C62.21,282.026 62.212,282.021 62.214,282.014C62.212,282.02 62.209,282.027 62.207,282.032ZM62.217,282.007C62.221,281.996 62.225,281.986 62.229,281.976C62.226,281.985 62.221,281.997 62.217,282.007ZM62.236,281.958C62.238,281.955 62.239,281.951 62.24,281.948C62.239,281.951 62.238,281.954 62.236,281.958ZM62.262,281.892C62.265,281.887 62.267,281.881 62.269,281.875C62.267,281.881 62.265,281.886 62.262,281.892ZM62.272,281.867C62.277,281.854 62.282,281.843 62.287,281.83C62.282,281.843 62.277,281.855 62.272,281.867ZM62.289,281.826C62.338,281.701 62.389,281.573 62.441,281.442C62.389,281.572 62.338,281.701 62.289,281.826ZM62.442,281.441C62.448,281.426 62.454,281.411 62.46,281.397C62.454,281.412 62.448,281.425 62.442,281.441ZM62.462,281.39C62.48,281.345 62.499,281.299 62.518,281.253C62.499,281.299 62.481,281.345 62.462,281.39ZM62.523,281.24C62.542,281.192 62.562,281.143 62.582,281.094C62.562,281.143 62.542,281.192 62.523,281.24ZM62.583,281.089C62.587,281.081 62.59,281.074 62.593,281.066C62.59,281.074 62.586,281.082 62.583,281.089ZM62.595,281.06C62.605,281.036 62.614,281.013 62.624,280.989C62.615,281.012 62.605,281.037 62.595,281.06ZM62.624,280.988C62.656,280.911 62.687,280.833 62.719,280.755C62.687,280.834 62.656,280.911 62.624,280.988ZM62.721,280.751C63.649,278.472 64.928,275.491 66.444,272.048C64.928,275.492 63.649,278.471 62.721,280.751ZM66.447,272.04C66.45,272.035 66.452,272.029 66.454,272.024C66.452,272.03 66.45,272.033 66.447,272.04ZM66.467,271.995C66.474,271.98 66.48,271.965 66.487,271.95C66.48,271.965 66.474,271.98 66.467,271.995ZM66.517,271.881C66.648,271.583 66.781,271.282 66.916,270.978C66.781,271.282 66.649,271.583 66.517,271.881ZM66.937,270.929C66.967,270.862 66.996,270.797 67.025,270.73C66.996,270.797 66.967,270.863 66.937,270.929ZM67.042,270.692C67.076,270.615 67.109,270.541 67.143,270.464C67.109,270.54 67.076,270.617 67.042,270.692ZM67.151,270.447C67.16,270.425 67.169,270.405 67.179,270.383C67.17,270.404 67.16,270.426 67.151,270.447ZM67.187,270.364C67.195,270.346 67.204,270.326 67.212,270.308C67.204,270.325 67.195,270.347 67.187,270.364ZM67.22,270.29C67.225,270.28 67.229,270.269 67.234,270.259C67.229,270.269 67.225,270.28 67.22,270.29ZM67.27,270.178C67.274,270.168 67.278,270.158 67.283,270.148C67.278,270.158 67.274,270.168 67.27,270.178ZM67.387,269.915C67.39,269.907 67.395,269.897 67.398,269.889C67.394,269.897 67.39,269.906 67.387,269.915ZM67.407,269.869C67.415,269.85 67.424,269.831 67.433,269.811C67.424,269.83 67.415,269.85 67.407,269.869ZM67.444,269.785C67.446,269.781 67.448,269.777 67.449,269.773C67.448,269.777 67.446,269.781 67.444,269.785ZM67.496,269.667C67.499,269.661 67.502,269.654 67.505,269.647C67.502,269.654 67.499,269.66 67.496,269.667ZM67.556,269.533C67.558,269.529 67.559,269.526 67.561,269.522C67.559,269.526 67.557,269.53 67.556,269.533ZM67.638,269.349C67.641,269.341 67.644,269.335 67.647,269.327C67.643,269.336 67.641,269.34 67.638,269.349ZM67.693,269.224C67.695,269.22 67.698,269.214 67.7,269.21C67.697,269.215 67.696,269.219 67.693,269.224ZM67.706,269.196C67.716,269.173 67.727,269.149 67.737,269.125C67.726,269.15 67.717,269.172 67.706,269.196ZM67.745,269.107C67.751,269.095 67.754,269.087 67.76,269.075C67.755,269.085 67.75,269.096 67.745,269.107ZM67.837,268.901C67.839,268.896 67.841,268.893 67.843,268.887C67.841,268.891 67.839,268.897 67.837,268.901ZM67.859,268.852C67.874,268.818 67.889,268.783 67.904,268.75C67.889,268.784 67.874,268.818 67.859,268.852ZM67.943,268.663C67.948,268.651 67.954,268.639 67.959,268.627C67.953,268.64 67.948,268.651 67.943,268.663ZM68,268.536C68.013,268.506 68.025,268.478 68.038,268.449C68.025,268.478 68.012,268.507 68,268.536ZM68.063,268.393C68.065,268.389 68.067,268.385 68.069,268.381C68.067,268.385 68.065,268.389 68.063,268.393ZM68.121,268.264C68.122,268.26 68.125,268.253 68.127,268.249C68.126,268.253 68.122,268.261 68.121,268.264ZM68.18,268.13L68.181,268.129C68.18,268.131 68.181,268.128 68.18,268.13Z" style="fill:rgb(207,206,208);fill-rule:nonzero;"/>
    </g>
    <g transform="matrix(-23.6033,0,0,23.6033,6807.57,-252.367)">
        <path d="M78.974,395.889C75.325,396.8 71.322,392.918 71.258,392.9C71.258,392.9 59.148,290.909 61.4,284.204C61.403,284.197 61.405,284.19 61.407,284.184C61.408,284.182 61.408,284.18 61.409,284.179C61.413,284.166 61.418,284.153 61.422,284.139C61.423,284.138 61.424,284.135 61.424,284.133C61.426,284.127 61.429,284.121 61.431,284.114C61.433,284.107 61.435,284.101 61.438,284.094C61.438,284.092 61.439,284.089 61.44,284.086C61.442,284.081 61.444,284.076 61.446,284.071C61.446,284.069 61.446,284.069 61.447,284.067C61.449,284.061 61.451,284.055 61.453,284.048C61.454,284.046 61.455,284.043 61.456,284.041C61.458,284.035 61.46,284.029 61.462,284.023C61.462,284.022 61.463,284.021 61.463,284.021C61.465,284.014 61.468,284.007 61.47,284C61.471,283.998 61.471,283.996 61.472,283.994C61.474,283.988 61.476,283.982 61.478,283.977C61.478,283.975 61.479,283.974 61.479,283.973C61.481,283.967 61.484,283.96 61.486,283.954C61.487,283.952 61.488,283.949 61.489,283.946C61.494,283.932 61.499,283.917 61.504,283.903C61.504,283.902 61.505,283.9 61.505,283.899C61.51,283.885 61.516,283.869 61.521,283.855C61.521,283.854 61.522,283.851 61.522,283.85C61.525,283.842 61.527,283.836 61.53,283.829L61.53,283.828C61.533,283.82 61.536,283.812 61.539,283.804L61.539,283.802C61.542,283.794 61.545,283.787 61.548,283.779L61.548,283.778C61.551,283.77 61.553,283.763 61.556,283.755C61.557,283.753 61.557,283.751 61.558,283.75C61.56,283.743 61.563,283.736 61.565,283.729C61.566,283.728 61.566,283.727 61.566,283.727C61.569,283.719 61.571,283.712 61.574,283.704C61.575,283.701 61.576,283.698 61.578,283.694C61.579,283.691 61.58,283.687 61.582,283.684C61.583,283.681 61.584,283.677 61.585,283.674C61.587,283.667 61.59,283.661 61.592,283.654C61.593,283.651 61.594,283.648 61.595,283.646C61.598,283.639 61.6,283.632 61.603,283.625L61.603,283.624C61.606,283.616 61.608,283.609 61.611,283.601C61.612,283.598 61.614,283.595 61.615,283.592C61.616,283.587 61.618,283.581 61.62,283.576C61.621,283.574 61.622,283.572 61.623,283.57C61.625,283.562 61.628,283.555 61.631,283.547C61.631,283.546 61.632,283.544 61.632,283.542C61.638,283.526 61.645,283.509 61.651,283.493C61.651,283.491 61.651,283.491 61.652,283.49C61.658,283.472 61.664,283.455 61.671,283.438L61.671,283.437C61.674,283.428 61.677,283.42 61.681,283.41C61.681,283.41 61.681,283.411 61.681,283.41C61.684,283.401 61.687,283.392 61.69,283.384C61.691,283.382 61.691,283.382 61.692,283.38C61.695,283.373 61.698,283.364 61.7,283.357C61.701,283.356 61.701,283.355 61.701,283.354C61.704,283.346 61.708,283.337 61.711,283.329C61.711,283.328 61.712,283.326 61.712,283.325C61.719,283.307 61.725,283.29 61.732,283.272C61.732,283.271 61.732,283.27 61.733,283.27C61.736,283.261 61.739,283.252 61.742,283.244L61.743,283.242C61.746,283.233 61.749,283.225 61.753,283.215C61.753,283.215 61.753,283.214 61.754,283.213C61.764,283.186 61.774,283.16 61.784,283.132C61.785,283.13 61.786,283.128 61.786,283.125C61.789,283.119 61.791,283.112 61.794,283.105C61.795,283.101 61.797,283.098 61.798,283.094C61.801,283.086 61.804,283.079 61.807,283.071C61.807,283.071 61.807,283.07 61.808,283.069C61.811,283.06 61.815,283.05 61.818,283.041L61.818,283.04C61.822,283.03 61.825,283.021 61.829,283.011C61.858,282.934 61.888,282.855 61.919,282.775C61.92,282.772 61.922,282.768 61.923,282.765C61.926,282.757 61.928,282.75 61.931,282.742C61.932,282.74 61.933,282.739 61.933,282.737C61.945,282.708 61.956,282.677 61.968,282.648C61.969,282.645 61.969,282.644 61.97,282.641C61.973,282.635 61.975,282.629 61.978,282.622C61.98,282.616 61.982,282.611 61.984,282.605C61.995,282.576 62.006,282.547 62.017,282.519L62.018,282.517C62.029,282.487 62.041,282.458 62.052,282.429C62.054,282.425 62.055,282.422 62.056,282.418C62.06,282.409 62.063,282.4 62.067,282.391C62.068,282.389 62.069,282.386 62.07,282.383C62.073,282.376 62.074,282.371 62.077,282.364C62.079,282.359 62.081,282.355 62.083,282.349C62.09,282.332 62.097,282.313 62.104,282.295C62.105,282.292 62.106,282.289 62.107,282.287C62.109,282.282 62.11,282.279 62.112,282.275C62.115,282.266 62.119,282.257 62.123,282.247C62.125,282.242 62.127,282.237 62.129,282.232C62.131,282.227 62.132,282.222 62.135,282.217C62.138,282.208 62.141,282.2 62.145,282.191C62.145,282.189 62.147,282.186 62.148,282.184C62.15,282.178 62.152,282.172 62.154,282.166C62.157,282.161 62.158,282.157 62.16,282.151C62.162,282.148 62.163,282.146 62.164,282.142C62.169,282.13 62.173,282.119 62.178,282.106C62.178,282.106 62.178,282.105 62.179,282.105C62.187,282.084 62.195,282.062 62.204,282.041C62.205,282.038 62.206,282.035 62.207,282.032C62.209,282.027 62.212,282.02 62.214,282.014C62.215,282.012 62.216,282.009 62.217,282.007C62.221,281.997 62.226,281.985 62.229,281.976C62.232,281.97 62.234,281.964 62.236,281.958C62.238,281.954 62.239,281.951 62.24,281.948C62.248,281.929 62.255,281.91 62.262,281.892C62.265,281.886 62.267,281.881 62.269,281.875C62.27,281.873 62.271,281.869 62.272,281.867C62.277,281.855 62.282,281.843 62.287,281.83C62.287,281.829 62.288,281.826 62.289,281.826C62.338,281.701 62.389,281.572 62.441,281.442L62.442,281.441C62.448,281.425 62.454,281.412 62.46,281.397C62.461,281.394 62.461,281.393 62.462,281.39C62.481,281.345 62.499,281.299 62.518,281.253C62.519,281.249 62.521,281.244 62.523,281.24C62.542,281.192 62.562,281.143 62.582,281.094C62.582,281.092 62.583,281.091 62.583,281.089C62.586,281.082 62.59,281.074 62.593,281.066C62.594,281.064 62.594,281.063 62.595,281.06C62.605,281.037 62.615,281.012 62.624,280.989L62.624,280.988C62.656,280.911 62.687,280.834 62.719,280.755C62.719,280.754 62.72,280.752 62.721,280.751C63.649,278.471 64.928,275.492 66.444,272.048C66.445,272.044 66.446,272.044 66.447,272.04C66.45,272.033 66.452,272.03 66.454,272.024C66.459,272.014 66.463,272.005 66.467,271.995C66.474,271.98 66.48,271.965 66.487,271.95C66.497,271.926 66.507,271.904 66.517,271.881C66.649,271.583 66.781,271.282 66.916,270.978C66.922,270.963 66.93,270.945 66.937,270.929C66.967,270.863 66.996,270.797 67.025,270.73C67.03,270.718 67.037,270.703 67.042,270.692C67.076,270.617 67.109,270.54 67.143,270.464C67.145,270.459 67.148,270.452 67.151,270.447C67.16,270.426 67.17,270.404 67.179,270.383C67.182,270.377 67.185,270.37 67.187,270.364C67.195,270.347 67.204,270.325 67.212,270.308C67.215,270.302 67.217,270.297 67.22,270.29C67.225,270.28 67.229,270.269 67.234,270.259C67.246,270.232 67.258,270.206 67.27,270.178C67.274,270.168 67.278,270.158 67.283,270.148C67.317,270.071 67.352,269.992 67.387,269.915C67.39,269.906 67.394,269.897 67.398,269.889C67.401,269.882 67.404,269.876 67.407,269.869C67.415,269.85 67.424,269.83 67.433,269.811C67.437,269.802 67.44,269.794 67.444,269.785C67.446,269.781 67.448,269.777 67.449,269.773C67.465,269.738 67.481,269.703 67.496,269.667C67.499,269.66 67.502,269.654 67.505,269.647C67.522,269.609 67.539,269.571 67.556,269.533C67.557,269.53 67.559,269.526 67.561,269.522C67.586,269.465 67.612,269.407 67.638,269.349C67.641,269.34 67.643,269.336 67.647,269.327C67.663,269.293 67.678,269.258 67.693,269.224C67.696,269.219 67.697,269.215 67.7,269.21C67.702,269.205 67.703,269.202 67.706,269.196C67.717,269.172 67.726,269.15 67.737,269.125C67.74,269.12 67.743,269.112 67.745,269.107C67.75,269.096 67.755,269.085 67.76,269.075C67.785,269.018 67.812,268.958 67.837,268.901C67.839,268.897 67.841,268.891 67.843,268.887C67.848,268.875 67.854,268.864 67.859,268.852C67.874,268.818 67.889,268.784 67.904,268.75C67.917,268.721 67.93,268.692 67.943,268.663C67.948,268.651 67.953,268.64 67.959,268.627C67.973,268.597 67.986,268.566 68,268.536C68.012,268.507 68.025,268.478 68.038,268.449C68.047,268.43 68.055,268.412 68.063,268.393C68.065,268.389 68.067,268.385 68.069,268.381C68.086,268.342 68.103,268.303 68.121,268.264C68.122,268.261 68.126,268.253 68.127,268.249C68.145,268.209 68.162,268.171 68.18,268.13C68.181,268.128 68.18,268.131 68.181,268.129C74.656,253.613 84.052,233.434 89.718,221.338C95.325,230.202 107.796,248.205 120.58,255.194L96.708,308.057L89.594,368.416C89.594,368.416 87.349,395.319 84.082,396.134L78.974,395.889Z" style="fill:rgb(248,171,28);fill-rule:nonzero;"/>
    </g>
    <g transform="matrix(-23.6033,0,0,23.6033,6807.57,-252.367)">
        <path d="M66.525,104.02L78.48,125.742L64.878,132.456C64.878,132.456 108.882,156.383 110.187,155.55C121.179,148.534 113.746,111.464 113.746,111.464L94.065,119.94L82.889,100.67L66.525,104.02Z" style="fill:rgb(247,161,153);fill-rule:nonzero;"/>
    </g>
    <g transform="matrix(-23.6033,0,0,23.6033,6807.57,-252.367)">
        <path d="M79.963,101.269L79.963,101.268L82.889,100.67L79.963,101.269Z" style="fill:rgb(107,84,96);fill-rule:nonzero;"/>
    </g>
    <g transform="matrix(-23.6033,0,0,23.6033,6807.57,-252.367)">
        <path d="M66.525,104.02L79.963,101.268L79.963,101.269L66.525,104.02Z" style="fill:rgb(107,84,96);fill-rule:nonzero;"/>
    </g>
    <g transform="matrix(-23.6033,0,0,23.6033,6807.57,-252.367)">
        <path d="M76.419,121.997L66.525,104.02L79.963,101.269L82.889,100.67L93.381,118.761C88.478,120.523 82.873,121.062 78.051,121.767C77.51,121.846 76.966,121.923 76.419,121.997Z" style="fill:rgb(246,150,139);fill-rule:nonzero;"/>
    </g>
    <g transform="matrix(23.0117,0,0,23.0117,-4950.61,349.036)">
        <path d="M440.74,36.635C440.74,36.635 455.535,31.834 462.938,41.704C470.34,51.574 462.229,65.528 471.801,71.162C481.373,76.796 472.886,78.289 472.886,78.289C472.886,78.289 482.161,82.56 475.852,85.868C475.852,85.868 485.189,89.134 477.574,95.051C477.574,95.051 484.948,99.204 475.156,103.305C475.156,103.305 482.047,109.11 471.259,110.796C460.472,112.483 432.123,101.991 432.123,101.991L440.74,36.635Z" style="fill:rgb(234,165,0);fill-rule:nonzero;"/>
    </g>
    <g transform="matrix(-23.6033,0,0,23.6033,6807.57,-252.367)">
        <path d="M53.241,92.57C53.241,92.57 47.751,77.416 63.865,68.122C79.98,58.828 92.951,71.461 97.962,83.004C102.973,94.546 104.669,108.889 92.031,115.863C76.663,124.342 61.823,111.997 53.241,92.57Z" style="fill:rgb(247,161,153);fill-rule:nonzero;"/>
    </g>
    <g transform="matrix(-23.6033,0,0,23.6033,6807.57,-252.367)">
        <path d="M55.444,95.483C55.444,95.483 48.715,96.14 51.822,102.232C56.796,111.987 62.738,106.29 62.738,106.29C62.738,106.29 58.629,103.754 55.444,95.483Z" style="fill:rgb(247,161,153);fill-rule:nonzero;"/>
    </g>
    <g transform="matrix(-23.6033,0,0,23.6033,6807.57,-252.367)">
        <path d="M53.922,102.367C53.719,101.984 53.568,101.576 53.444,101.156C53.32,100.737 53.223,100.3 53.216,99.838C53.208,99.384 53.267,98.865 53.62,98.415C53.794,98.195 54.042,98.022 54.302,97.924C54.564,97.828 54.826,97.808 55.078,97.803L55.301,97.798L55.44,98.024C56.456,99.678 57.396,101.373 58.236,103.125L58.378,103.42L58.152,103.607C57.697,103.985 57.171,104.586 57.351,105.02C57.438,105.254 57.735,105.457 58.042,105.589C58.356,105.722 58.697,105.821 59.042,105.914C58.685,105.93 58.324,105.919 57.962,105.842C57.609,105.762 57.207,105.651 56.924,105.264C56.652,104.844 56.772,104.321 56.942,103.975C57.126,103.606 57.355,103.313 57.641,103.021L57.557,103.504C56.508,101.869 55.559,100.179 54.684,98.447L55.046,98.668C54.691,98.649 54.387,98.699 54.18,98.906C53.969,99.112 53.841,99.479 53.785,99.868C53.682,100.661 53.778,101.522 53.922,102.367Z" style="fill:rgb(232,125,98);fill-rule:nonzero;"/>
    </g>
    <g transform="matrix(-23.6033,0,0,23.6033,6807.57,-252.367)">
        <path d="M83.131,82.129C83.131,82.129 83.131,81.905 83.216,81.525C83.305,81.149 83.467,80.605 83.809,80.026C83.965,79.723 84.182,79.428 84.418,79.114C84.682,78.83 84.945,78.496 85.291,78.236C85.616,77.948 85.987,77.693 86.392,77.476C86.777,77.221 87.232,77.098 87.659,76.914C88.106,76.796 88.558,76.679 89.005,76.618C89.454,76.586 89.899,76.546 90.322,76.567C90.744,76.605 91.148,76.657 91.526,76.712C91.899,76.799 92.243,76.916 92.556,77.017C92.873,77.105 93.15,77.225 93.386,77.359C93.626,77.476 93.827,77.598 93.992,77.693C94.321,77.89 94.497,78.019 94.497,78.019C94.497,78.019 94.271,78.051 93.894,78.079C93.516,78.123 93,78.083 92.391,78.154C92.088,78.181 91.764,78.198 91.43,78.215C91.095,78.264 90.749,78.309 90.394,78.339C90.042,78.387 89.691,78.484 89.329,78.531C88.981,78.625 88.628,78.721 88.274,78.816C87.941,78.958 87.579,79.036 87.263,79.206C87.102,79.284 86.939,79.355 86.774,79.423C86.619,79.509 86.465,79.594 86.314,79.678C85.998,79.829 85.732,80.041 85.446,80.206C85.188,80.404 84.91,80.568 84.686,80.759C83.753,81.489 83.131,82.129 83.131,82.129Z" style="fill:rgb(45,35,52);fill-rule:nonzero;"/>
    </g>
    <g transform="matrix(-23.6033,0,0,23.6033,6807.57,-252.367)">
        <path d="M95.788,87.985C95.788,87.985 95.645,87.806 95.414,87.482C95.302,87.319 95.167,87.121 95.011,86.894C94.836,86.689 94.642,86.465 94.45,86.216C94.265,85.963 93.979,85.754 93.748,85.49C93.634,85.353 93.469,85.276 93.331,85.163C93.181,85.067 93.056,84.924 92.889,84.865C92.731,84.793 92.578,84.693 92.417,84.636C92.251,84.604 92.089,84.556 91.929,84.513L91.452,84.513C91.304,84.567 91.144,84.57 91.001,84.639C90.71,84.768 90.447,84.975 90.209,85.231C90.108,85.378 89.995,85.515 89.883,85.656C89.798,85.821 89.714,85.985 89.631,86.146C89.486,86.479 89.367,86.833 89.267,87.172C89.212,87.523 89.098,87.853 89.066,88.172C89.037,88.492 88.995,88.789 88.957,89.056C88.943,89.326 88.932,89.561 88.923,89.754C88.899,90.147 88.873,90.379 88.873,90.379C88.873,90.379 88.786,90.171 88.654,89.792C88.592,89.601 88.503,89.37 88.436,89.096C88.385,88.821 88.328,88.506 88.283,88.157C88.228,87.809 88.256,87.421 88.261,87.01C88.304,86.602 88.359,86.156 88.51,85.714C88.596,85.493 88.683,85.268 88.772,85.041C88.895,84.823 89.039,84.607 89.185,84.393C89.513,83.978 89.948,83.616 90.477,83.38C90.736,83.266 91.034,83.231 91.311,83.168C91.594,83.151 91.878,83.19 92.155,83.211C92.416,83.279 92.668,83.377 92.912,83.47C93.143,83.582 93.34,83.733 93.546,83.862C93.941,84.136 94.236,84.487 94.499,84.807C94.727,85.154 94.969,85.458 95.105,85.793C95.257,86.117 95.379,86.418 95.484,86.679C95.562,86.942 95.613,87.178 95.66,87.371C95.749,87.758 95.788,87.985 95.788,87.985Z" style="fill:rgb(45,35,52);fill-rule:nonzero;"/>
    </g>
    <g transform="matrix(-23.6033,0,0,23.6033,6807.57,-252.367)">
        <path d="M79.133,93.708C79.133,93.708 78.99,93.528 78.759,93.205C78.647,93.042 78.511,92.844 78.356,92.617C78.181,92.412 77.987,92.188 77.795,91.939C77.61,91.685 77.324,91.477 77.093,91.213C76.978,91.075 76.814,90.999 76.676,90.886C76.526,90.79 76.401,90.647 76.234,90.587C76.076,90.516 75.923,90.416 75.762,90.359C75.596,90.327 75.434,90.279 75.274,90.236L74.797,90.236C74.649,90.29 74.489,90.292 74.346,90.362C74.055,90.491 73.792,90.698 73.554,90.954C73.452,91.101 73.34,91.238 73.228,91.379C73.143,91.544 73.059,91.708 72.976,91.868C72.831,92.202 72.712,92.556 72.612,92.894C72.557,93.246 72.443,93.575 72.411,93.895C72.382,94.214 72.34,94.511 72.301,94.779C72.288,95.048 72.277,95.283 72.268,95.477C72.244,95.869 72.218,96.102 72.218,96.102C72.218,96.102 72.131,95.894 71.999,95.514C71.937,95.324 71.847,95.093 71.781,94.819C71.73,94.544 71.673,94.229 71.627,93.88C71.573,93.531 71.601,93.144 71.606,92.733C71.649,92.325 71.704,91.879 71.855,91.437C71.941,91.216 72.028,90.991 72.117,90.763C72.24,90.546 72.384,90.33 72.53,90.115C72.857,89.701 73.293,89.339 73.822,89.103C74.081,88.988 74.379,88.954 74.656,88.891C74.938,88.873 75.223,88.913 75.5,88.934C75.761,89.002 76.012,89.1 76.257,89.193C76.488,89.305 76.685,89.456 76.891,89.585C77.286,89.859 77.581,90.21 77.844,90.53C78.072,90.877 78.313,91.181 78.45,91.516C78.602,91.84 78.724,92.141 78.828,92.401C78.907,92.665 78.958,92.901 79.005,93.094C79.094,93.481 79.133,93.708 79.133,93.708Z" style="fill:rgb(45,35,52);fill-rule:nonzero;"/>
    </g>
    <g transform="matrix(-23.6033,0,0,23.6033,6807.57,-252.367)">
        <path d="M84.82,89.398C85.399,89.787 85.919,90.222 86.417,90.674C86.921,91.121 87.387,91.599 87.85,92.08C88.763,93.05 89.597,94.084 90.377,95.16L90.646,95.531L90.496,95.898C90.16,96.722 89.766,97.525 89.358,98.322C88.935,99.114 88.488,99.898 87.941,100.644C88.008,99.721 88.174,98.835 88.364,97.957C88.569,97.085 88.787,96.218 89.064,95.372L89.183,96.11C88.309,95.108 87.49,94.063 86.75,92.954C86.386,92.395 86.025,91.834 85.703,91.241C85.375,90.654 85.068,90.05 84.82,89.398Z" style="fill:rgb(226,131,113);fill-rule:nonzero;"/>
    </g>
    <g transform="matrix(-23.6033,0,0,23.6033,6807.57,-252.367)">
        <path d="M94.798,102.432C91.282,109.827 83.137,110.036 78.751,107.112" style="fill:white;fill-rule:nonzero;"/>
    </g>
    <g transform="matrix(-23.6033,0,0,23.6033,6807.57,-252.367)">
        <path d="M65.699,85.885C65.699,85.885 65.698,85.661 65.784,85.28C65.873,84.905 66.034,84.361 66.377,83.782C66.533,83.479 66.75,83.184 66.986,82.869C67.25,82.586 67.512,82.251 67.858,81.992C68.184,81.704 68.555,81.449 68.959,81.232C69.345,80.977 69.8,80.854 70.227,80.67C70.674,80.552 71.126,80.435 71.573,80.374C72.022,80.342 72.467,80.302 72.889,80.323C73.312,80.361 73.716,80.413 74.094,80.468C74.467,80.555 74.811,80.672 75.124,80.773C75.441,80.861 75.718,80.98 75.954,81.115C76.194,81.232 76.395,81.354 76.56,81.449C76.889,81.646 77.065,81.775 77.065,81.775C77.065,81.775 76.838,81.807 76.462,81.835C76.084,81.878 75.568,81.839 74.959,81.91C74.656,81.937 74.332,81.954 73.997,81.971C73.663,82.02 73.317,82.065 72.962,82.095C72.61,82.143 72.259,82.24 71.897,82.287C71.549,82.381 71.196,82.476 70.842,82.572C70.509,82.714 70.147,82.792 69.831,82.962C69.67,83.04 69.506,83.111 69.342,83.179C69.187,83.265 69.033,83.35 68.882,83.434C68.566,83.585 68.3,83.797 68.014,83.962C67.756,84.16 67.478,84.323 67.254,84.515C66.321,85.245 65.699,85.885 65.699,85.885Z" style="fill:rgb(45,35,52);fill-rule:nonzero;"/>
    </g>
    <g transform="matrix(22.1984,6.06373,-6.06373,22.1984,-4379.52,-2346.66)">
        <path d="M446.296,39.22C446.296,39.22 445.19,51.845 437.577,57.116C429.964,62.386 420.301,62.627 420.301,62.627C420.301,62.627 418.551,72.454 417.096,70.102C417.096,70.102 413.739,64.754 412.123,60.642C410.507,56.53 414.243,34.581 428.947,34.309C443.652,34.038 446.296,39.22 446.296,39.22Z" style="fill:rgb(234,178,0);fill-rule:nonzero;"/>
    </g>
    <g transform="matrix(-23.6033,0,0,23.6033,6807.57,-252.367)">
        <path d="M2.819,117.944C2.819,117.944 0.565,100.615 5.936,118.144C5.936,118.144 3.404,99.815 8.293,117.965C8.293,117.965 7.158,103.102 10.795,118.621C10.795,118.621 20.367,112.46 12.375,121.531L33.471,165.289C28.826,167.535 23.042,174.536 27.468,176.002C29.894,176.806 27.286,182.229 20.704,183.106C13.225,172.125 1.675,126.029 0.492,117.63C-1.411,104.123 2.819,117.944 2.819,117.944Z" style="fill:rgb(247,161,153);fill-rule:nonzero;"/>
    </g>
    <g transform="matrix(-23.6033,0,0,23.6033,6807.57,-252.367)">
        <path d="M165.052,133.124C161.593,127.019 157.999,120.988 154.98,114.651C151.394,114.839 146.367,113.636 140.464,112.434C128.644,110.026 113.308,107.619 98.982,116.373C98.982,116.373 99.606,141.33 68.41,130.099C68.41,130.099 59.051,131.971 50.94,141.954C42.829,151.937 30.974,161.296 30.974,161.296C30.974,161.296 34.255,160.431 44.237,163.55C52.058,165.994 54.768,166.58 65.917,158.235C66.124,164.473 68.726,173.526 80.422,173.526L83.538,198.024C83.538,198.024 123.863,191.905 146.419,171.02L126.37,137.604C126.37,137.604 154.814,136.571 165.052,133.124Z" style="fill:rgb(255,36,48);fill-rule:nonzero;"/>
    </g>
    <g transform="matrix(-23.6033,0,0,23.6033,6807.57,-252.367)">
        <path d="M21.961,183.348C21.368,183.348 20.834,183.279 20.367,183.133C10.385,180.014 1.939,129.945 1.939,129.945C1.939,129.945 10.385,180.014 20.367,183.133C20.834,183.279 21.368,183.348 21.96,183.348C28.127,183.348 40.732,175.829 51.606,168.459C40.734,175.828 28.128,183.349 21.961,183.348ZM51.635,168.439C51.637,168.438 51.639,168.436 51.641,168.435C51.639,168.436 51.637,168.438 51.635,168.439Z" style="fill:rgb(218,217,218);fill-rule:nonzero;"/>
    </g>
    <g transform="matrix(-23.6033,0,0,23.6033,6807.57,-252.367)">
        <path d="M21.96,183.348C21.368,183.348 20.834,183.279 20.367,183.133C10.385,180.014 20.367,183.133 20.367,183.133L30.974,161.296C30.974,161.296 42.829,151.937 50.94,141.954C51.528,141.23 52.123,140.561 52.72,139.92C56.376,146.502 61.135,152.406 65.234,158.744C61.72,161.364 56.883,164.881 51.641,168.435C51.639,168.436 51.637,168.438 51.635,168.439C51.625,168.446 51.615,168.452 51.606,168.459C40.732,175.829 28.127,183.348 21.96,183.348Z" style="fill:rgb(242,27,39);fill-rule:nonzero;"/>
    </g>
    <g transform="matrix(-23.6033,0,0,23.6033,6807.57,-252.367)">
        <path d="M173.279,86.677C173.446,87.848 172.633,88.933 171.462,89.1L160.069,90.728C158.899,90.895 157.814,90.082 157.647,88.911L153.596,60.562C153.428,59.391 154.242,58.306 155.412,58.139L166.805,56.511C167.976,56.344 169.06,57.157 169.228,58.328L173.279,86.677Z" style="fill:rgb(45,35,52);fill-rule:nonzero;"/>
    </g>
    <g transform="matrix(-23.6033,0,0,23.6033,6807.57,-252.367)">
        <path d="M172.687,83.446C173.492,83.643 173.905,83.419 174.469,83.355C174.901,80.676 175.399,67.351 171.471,67.14C167.125,66.907 157.479,66.378 168.835,69.55C168.835,69.55 149.222,69.762 168.865,72.352C168.865,72.352 148.868,75.931 170.289,74.439C170.289,74.439 156.242,77.766 172.067,77.035L172.687,83.446Z" style="fill:rgb(247,161,153);fill-rule:nonzero;"/>
    </g>
    <g transform="matrix(7.71816,-17.6304,11.7335,5.13667,-2094.83,8744.63)">
        <path d="M436.074,110.908C432.839,112.102 430.531,115.013 430.531,115.013C430.531,115.013 376.951,169.163 383.98,177.451C391.009,185.738 409.77,181.373 408.731,178.293C407.827,175.617 429.554,135.778 435.249,125.41C436.091,123.879 437.247,122.81 438.536,122.369C447.776,119.253 446.116,114.662 446.116,114.662C450.386,111.673 449.779,115.569 449.915,113.538C449.944,113.093 438.865,109.878 436.074,110.908Z" style="fill:rgb(247,161,153);fill-rule:nonzero;"/>
    </g>
</svg>
