<svg xmlns="http://www.w3.org/2000/svg" viewBox="0 0 496.592 496.592" fill="#DAEAF2">
  <path d="M308.33 103.153c-19.191-7.947-39.374-11.977-59.988-11.977-63.729 0-120.667 38.039-145.062 96.915-33.085 79.963 5.025 171.932 84.944 205.009 19.193 7.958 39.38 11.993 60.001 11.993 63.71 0 120.64-38.037 145.04-96.909 16.035-38.723 16.03-81.38-.014-120.112-16.045-38.732-46.204-68.891-84.921-84.919zm55.37 192.785c-19.424 46.87-64.75 77.155-115.475 77.155-16.393 0-32.456-3.214-47.754-9.558-63.626-26.334-93.962-99.55-67.625-163.203 19.42-46.87 64.754-77.156 115.495-77.156 16.391 0 32.455 3.211 47.747 9.543 30.819 12.758 54.826 36.766 67.598 67.6 12.774 30.836 12.779 64.796.014 95.619z"/>
  <path d="M463.333 159.055C439.544 101.614 394.81 56.868 337.367 33.057c-28.471-11.785-58.405-17.761-88.974-17.761-45.497 0-89.725 13.226-127.901 38.247-39.122 25.641-69.3 62.117-87.275 105.491-23.783 57.459-23.778 120.739.012 178.181 23.792 57.448 68.527 102.18 125.959 125.952 28.477 11.796 58.425 17.778 89.01 17.78h.015c45.488 0 89.704-13.225 127.867-38.244 39.112-25.641 69.28-62.119 87.245-105.489 23.797-57.442 23.8-120.713.008-178.159zm-29.572 165.911C402.562 400.287 329.725 448.953 248.2 448.947c-26.362-.002-52.19-5.164-76.77-15.346C69.173 391.274 20.435 273.593 62.781 171.277 93.992 95.961 166.849 47.295 248.393 47.295c26.347 0 52.165 5.158 76.728 15.326C427.393 105.013 476.13 222.7 433.761 324.966z"/>
  <path d="M209.135 111.8l-29.024-70.096c-3.381-8.165-12.739-12.044-20.904-8.662-8.164 3.381-12.043 12.739-8.662 20.904l23.208 56.051c-27.063 14.535-49.023 36.496-63.599 63.597l-56.028-23.223c-8.164-3.384-17.523.491-20.907 8.654-3.384 8.163.491 17.523 8.654 20.907l70.064 29.04a15.94 15.94 0 006.12 1.224c6.273 0 12.227-3.714 14.784-9.866 12.815-30.864 36.833-54.88 67.629-67.624a16.002 16.002 0 008.665-20.906z"/>
  <path d="M180.091 41.71c-3.386-8.163-12.747-12.036-20.909-8.65-57.435 23.821-102.169 68.556-125.963 125.965-3.384 8.163.491 17.524 8.654 20.907a15.955 15.955 0 006.12 1.224c6.277 0 12.233-3.718 14.787-9.878 20.526-49.521 59.116-88.11 108.661-108.659 8.163-3.386 12.036-12.747 8.65-20.909zM463.326 159.047C439.542 101.613 394.81 56.875 337.372 33.075c-8.16-3.383-17.523.491-20.906 8.656l-29.04 70.08c-3.382 8.16.49 17.517 8.649 20.903 30.844 12.799 54.859 36.813 67.623 67.618a15.997 15.997 0 0020.908 8.657l70.063-29.04c8.162-3.382 12.037-12.74 8.657-20.902zm-76.93 14.56c-14.546-27.062-36.504-49.019-63.591-63.583l16.86-40.685c37.812 19.253 68.157 49.602 87.4 87.412l-40.669 16.856zM454.651 316.306l-70.064-29.024a16.003 16.003 0 00-20.906 8.661c-12.766 30.832-36.769 54.831-67.587 67.576a15.999 15.999 0 00-8.668 20.907l29.024 70.08a15.998 15.998 0 0020.906 8.659c57.458-23.805 102.189-68.538 125.956-125.958 3.378-8.163-.499-17.519-8.661-20.901zM339.654 426.902l-16.845-40.671c27.078-14.533 49.029-36.483 63.576-63.568l40.666 16.846c-19.233 37.794-49.579 68.139-87.397 87.393zM200.464 363.525c-30.802-12.769-54.818-36.776-67.624-67.599-3.388-8.155-12.741-12.023-20.899-8.644l-70.064 29.024a16.005 16.005 0 00-8.656 20.912c23.826 57.449 68.564 102.178 125.97 125.949a15.95 15.95 0 006.115 1.221c6.278 0 12.236-3.72 14.789-9.881l29.024-70.08c3.38-8.162-.495-17.519-8.655-20.902zm-43.575 63.378c-37.79-19.236-68.135-49.579-87.403-87.398l40.67-16.849c14.569 27.071 36.523 49.018 63.582 63.563l-16.849 40.684zM248.287 449.12c-8.836 0-16 7.163-16 16v15.472c0 8.837 7.164 16 16 16 8.837 0 16-7.163 16-15.999V465.12c0-8.837-7.162-16-16-16zM248.287 0c-8.836 0-16 7.164-16 16v.528c0 8.836 7.164 16 16 16 8.837 0 16-7.164 16-16V16c0-8.836-7.162-16-16-16zM480.32 232.56h-15.473c-8.837 0-16 7.164-16 16 0 8.837 7.163 16 16 16h15.472c8.837 0 16-7.163 16.001-16 0-8.836-7.163-16-16-16z"/>
  <g>
    <path d="M31.727 232.56H16.271c-8.836 0-16 7.164-16 16 0 8.837 7.164 16 16 16h15.456c8.836 0 16-7.163 16-16 0-8.836-7.164-16-16-16z"/>
  </g>
</svg>
