<svg viewBox="0 0 6691 5689" xmlns="http://www.w3.org/2000/svg" fill-rule="evenodd" clip-rule="evenodd" stroke-linecap="round" stroke-linejoin="round" stroke-miterlimit="1.5"><path d="M1083.5 5574.6c-427 0-773.2-62.7-773.2-140.2 0-59.9 206.9-111 498.1-131.1l2.7 15.8s-284.5 135.5-189.5 135.5c36 0 126.4-19.4 307.2-73l7.2-85a4216 4216 0 01268.8-.7l7.3 85.7c180.8 53.6 271.2 73 307.1 73 95 0-189.4-135.5-189.4-135.5l3-17.5c304.8 18.8 524 71.1 524 132.8 0 77.5-346.2 140.2-773.3 140.2z" fill="#dad9da" fill-rule="nonzero"/><path d="M1063.1 435.3s198.4-64.3 297.6 68c99.3 132.3-9.5 319.4 118.8 395 128.4 75.5 14.6 95.5 14.6 95.5s124.3 57.2 39.8 101.6c0 0 125.1 43.8 23 123.1 0 0 99 55.7-32.4 110.7 0 0 92.4 77.8-52.2 100.4-144.6 22.6-524.7-118-524.7-118L1063 435.2z" fill="#eaa500" fill-rule="nonzero"/><path d="M1089.5 433.9s-212.4-180.4-385.2 13c-108.1 121-29.5 322-157.9 382.4-128.4 60.5-25 94.2-25 94.2s-122.5 42.6-49.2 97.3c0 0-121.7 29-36.2 121 0 0-98.7 44 16.8 115 0 0-95.2 67 36.6 107.1 131.8 40 502.2-55.6 502.2-55.6l97.9-874.4z" fill="#eab200" fill-rule="nonzero"/><path d="M786.3 949l51.6 347-211.2 22.3s461.6 533.5 482.8 528.9c178.3-39.2 233.9-524.2 233.9-524.2l-272.8-27.6-53.2-310.7L786.3 949z" fill="#f7a199" fill-rule="nonzero"/><path d="M1067.3 1276.4c-72.9-.7-149-21-215.8-35.3l-22.5-5L786.3 949l231 35.7 50 291.7z" fill="#f6968b" fill-rule="nonzero"/><path d="M702.8 741s41.9-200 294-227.2c252.3-27.2 317.7 182.6 316.6 354.2-1 171.6-78.8 337.7-274.9 355.1-238.4 21.2-335.6-192.4-335.7-482z" fill="#f7a199" fill-rule="nonzero"/><path d="M714.2 789.6s-87.5-29-82.3 64.2c8.3 149.1 113.8 110.7 113.8 110.7s-37.3-54.2-31.5-175z" fill="#f7a199" fill-rule="nonzero"/><path d="M1137.6 470s-14.8 169.2-116.9 240c-102 70.6-231.6 73.8-231.6 73.8S765.6 915.5 746 884c0 0-45-71.7-66.6-126.8-21.7-55.1 28.4-349.4 225.5-353 197.2-3.7 232.6 65.8 232.6 65.8z" fill="#eab200" fill-rule="nonzero"/><path d="M1293.6 750.3s-1.3 2.8-4.4 7.1a90.6 90.6 0 01-28.3 23.4c-4.9 2.2-10 4.9-15.7 6.2-5.7 1.8-11.7 3-18 3.4-6.1 1-12.5.1-18.8 0-6.3-1-12.5-2-18.5-3.7-5.7-2-11.5-4-16.7-6.6-5-2.8-9.8-5.6-14.2-8.4-4.2-3.1-7.8-6.5-11.2-9.5a49.4 49.4 0 01-8.4-8.8c-2.4-2.8-4.2-5.4-5.8-7.5-3-4.3-4.5-6.9-4.5-6.9l7.9 2.6c5 1.5 11.2 4.9 19.1 7.3l12.4 4.6c4.4 1.2 9 2.6 13.6 4.1 4.6 1.4 9.5 2 14.3 3.5l14.8 2.2c4.9.1 9.9 1.1 14.7.8h7.3l7.2-.7c4.7-.1 9.2-1.3 13.7-1.8 4.3-1 8.7-1.6 12.5-2.7 15.7-4 27-8.6 27-8.6zM1164.2 871.8l1.8 8.3 1.8 9.6c1.1 3.5 2.3 7.4 3.3 11.6 1 4.1 3.3 8.3 4.8 12.9.6 2.3 2.3 4.2 3.4 6.3 1.3 2 2 4.5 3.8 6.2 1.6 1.8 3 3.9 4.7 5.5 1.9 1.3 3.6 2.8 5.4 4.2l6 2.6c2 .1 4 1 6.2.9a33 33 0 0013.2-3c2-1.3 4.2-2.4 6.4-3.5l5.8-4.7c3.7-3.4 7.1-7.2 10.2-10.8 2.6-4.1 5.9-7.6 8-11.4a223 223 0 016.3-10.4l4.2-8.6 4.1-7.5s0 3.1-.5 8.6c-.3 2.7-.4 6-1.1 9.8l-3.3 12.6c-1.2 4.6-3.7 9.3-6 14.4-2.8 4.9-6 10.1-10.3 14.8l-7 7a47 47 0 01-30.4 11.3c-3.8 0-7.7-1.2-11.5-2-3.6-1.3-7-3.3-10.3-5.1-3-2.3-5.5-5-8-7.4-2.3-2.7-4-5.7-5.8-8.4a65.8 65.8 0 01-6.7-17c-1-5.6-2.2-10.8-2.1-15.7-.1-4.9 0-9.3.2-13.1.4-3.7 1.1-7 1.6-9.6 1-5.3 1.8-8.4 1.8-8.4zM924.9 851.5a171.9 171.9 0 003.7 17.9c1 3.5 2.2 7.4 3.2 11.5 1 4.2 3.3 8.4 4.8 13 .6 2.3 2.3 4.2 3.4 6.3 1.3 2 2 4.5 3.8 6.2 1.6 1.8 3 3.8 4.7 5.4l5.4 4.3 6 2.6c2 .1 4 1 6.3.9 4.3 0 8.7-1.1 13.1-3 2-1.3 4.2-2.4 6.4-3.5l5.8-4.8c3.7-3.3 7.1-7 10.2-10.8 2.7-4 5.9-7.5 8-11.3 2.2-3.9 4.3-7.3 6.3-10.4l4.2-8.6 4.1-7.5s0 3-.5 8.5c-.3 2.8-.4 6.1-1.1 10l-3.3 12.5c-1.2 4.6-3.7 9.3-6 14.4a79.2 79.2 0 01-17.2 21.8 46.9 46.9 0 01-30.4 11.3c-3.9 0-7.8-1.2-11.6-2-3.6-1.3-7-3.4-10.3-5.1-2.9-2.3-5.5-5-8-7.4-2.3-2.7-4-5.7-5.8-8.4a65.1 65.1 0 01-6.7-17c-.9-5.7-2.2-10.8-2-15.7-.2-4.9 0-9.3 0-13.1.5-3.8 1.2-7 1.7-9.6 1-5.4 1.8-8.4 1.8-8.4z" fill="#2d2334" fill-rule="nonzero"/><path d="M1125.3 806.4c4.3 14.2 7.5 28.6 10.3 43 1.5 7.1 2.9 14.3 4 21.5 1.2 7.2 2.5 14.4 3.4 21.7 2.2 14.4 4 28.9 5.4 43.4 1.7 14.5 2.5 29 3.7 43.6l.4 5-3.3 3.2c-8.8 8.2-18 16.3-27.5 24a262.8 262.8 0 01-30.5 21.1c6-11.1 13-21.3 20.1-31.2 7.3-9.8 15-19.2 23-28.4l-2.9 8.2c-1.5-14.5-3.5-29-4.5-43.5a912 912 0 01-2.8-43.7c-.5-7.2-.5-14.5-.7-21.8-.3-7.4-.2-14.7-.2-22 .2-14.6.6-29.3 2.1-44.1z" fill="#e28371" fill-rule="nonzero"/><path d="M657.3 867a88.4 88.4 0 015.2-35.4c2.4-5.7 6-11.9 12.8-15.5 3.4-1.8 7.5-2.6 11.3-2.4 3.8.3 7.1 1.5 10.3 2.8l2.8 1.1.5 3.6c3.6 26.3 6 52.6 6.8 79l.2 4.5-3.9 1.1c-7.8 2.2-17.6 6.8-17.8 13.3-.2 3.3 2.4 7.5 5.5 10.8 3.2 3.4 6.9 6.5 10.7 9.6-4.5-1.8-9-3.9-13-6.8-4-3-8.4-6.6-9.9-13-.5-3.1.3-6.6 1.8-9.3 1.5-2.7 3.5-4.8 5.6-6.7 4.3-3.5 8.8-6 14-8l-3.7 5.6a767.6 767.6 0 01-8-79l3.2 4.8c-4.3-2.2-8.3-3.2-12-1.8a23.4 23.4 0 00-10.3 9.8c-5.6 9.3-9.2 20.6-12 32z" fill="#e87d62" fill-rule="nonzero"/><path d="M896.6 751.6s1.3-2.8 4.4-7a90.4 90.4 0 0128.3-23.5c4.8-2.1 10-4.8 15.7-6.2 5.7-1.8 11.7-2.9 18-3.4 6.1-1 12.5 0 18.8 0 6.3 1 12.5 2 18.5 3.7 5.7 2 11.5 4 16.7 6.6 5 2.8 9.8 5.7 14.2 8.5 4.2 3.1 7.8 6.4 11.2 9.4 3.4 2.9 6.2 5.9 8.4 8.9 2.4 2.7 4.2 5.4 5.7 7.5 3 4.2 4.6 6.8 4.6 6.8s-3-.8-7.9-2.6c-5-1.5-11.2-4.8-19.2-7.3-3.9-1.3-8-2.9-12.3-4.5-4.4-1.3-9-2.6-13.6-4.2-4.7-1.3-9.6-2-14.3-3.5l-14.8-2.2c-4.9 0-9.9-1-14.7-.7H957l-7.2.7c-4.7.1-9.2 1.3-13.7 1.8-4.3 1-8.7 1.5-12.5 2.7-15.7 4-27 8.5-27 8.5z" fill="#2d2334" fill-rule="nonzero"/><path d="M1087.6 1059.4s9.3 5 21.9 14c6.3 4.7 13.5 10 20.9 17 1 1.2 1.8 1.7 3.2 4l.6 1.3c.4 1.2.7 3.3-.4 5.3a6.6 6.6 0 01-4 3l-1.7.2-1.2-.2h-.5.3-1.8l-7.6-.5-15.3-1c-20.5-2-40.7-4.6-55.7-7.1-15-2.6-25.2-5.5-25.2-5.5s10.4-1.5 26-2c8-.3 17.1-.5 26.9-.2 9.7.3 19.9 1 30.2 1.8l15.2 1.6 7.5.8 1.8.3h.6-1.1l-1.1.1c-1.4.2-3 1.5-3.7 2.8-1 1.7-.8 3.5-.4 4.5l.2.4-1.3-1.8c-5.9-6.8-12.3-13.4-17.4-19.1-10.4-11.4-16.9-19.7-16.9-19.7z" fill="#e28371" fill-rule="nonzero"/><path d="M785.4 5168.3L811 5319s-540.7 257.5 117.7 62.5l22-261.1-165.4 47.8z" fill="#f7a199" fill-rule="nonzero"/><path d="M802.2 5267l-2.5-14.7 2.5 14.7zm136.4-.9l1.7-20-1.7 20z" fill="#cfced0" fill-rule="nonzero"/><path d="M802.2 5267l-2.5-14.7 140.6-6.3-1.7 20.1c-26.7-.3-53.9-1.6-81-1.6-18.5 0-37.1.6-55.4 2.5z" fill="#ed9087" fill-rule="nonzero"/><path d="M932.5 5322.8l-3.7 58.8s-298 117.7-331 77.3c-33.1-40.5 177.6-121.8 177.6-121.8s-67.3 66.6 157-14.3z" fill="#2d2334" fill-rule="nonzero"/><path d="M1355.5 5168.3l-25.7 150.8s540.7 257.5-117.7 62.5l-22.1-261.1 165.5 47.8z" fill="#f7a199" fill-rule="nonzero"/><path d="M1338.7 5267l2.7-15.9-2.7 15.9zm-136.4-.9l-2.3-26.8 2.3 26.8z" fill="#cfced0" fill-rule="nonzero"/><path d="M1338.7 5267a544.1 544.1 0 00-55.5-2.5c-27 0-54.2 1.3-80.9 1.6l-2.3-26.8 141.4 11.8-2.7 15.9z" fill="#ed9087" fill-rule="nonzero"/><path d="M1208.4 5322.8l3.7 58.8s298 117.7 331 77.3c33.1-40.5-177.6-121.8-177.6-121.8s67.3 66.6-157.1-14.3z" fill="#2d2334" fill-rule="nonzero"/><path d="M1590.9 2450H558.3s-145.1 160.3-115.7 579.6c29.5 419.3 218.7 1061 218.7 1061S543.6 4370 632 4737.9c88.3 367.9 154.5 515 154.5 515l164.5-7.4 136.4-1997.9 10.7 4.3 88.3 1986.3 176.5 14.7s66.2-147.1 154.5-515c88.3-367.8-29.4-647.3-29.4-647.3s191.6-614.3 221-1033.6c29.5-419.4-118-607-118-607z" fill="#f8ab1c" fill-rule="nonzero"/><path d="M661.3 4090.6s-189.2-641.7-218.7-1061v-1.2 1.2c29.5 419.3 218.7 1061 218.7 1061zM442.5 3028v-.8.8zm0-1.4zm-.1-1.3zm-.1-1.2v-.2.2zm-.1-1.3z" fill="#cfced0" fill-rule="nonzero"/><path d="M786.4 5252.9s-66.2-147.1-154.5-515a1188.3 1188.3 0 01-32.8-277c0-222.4 62.2-370.3 62.2-370.3s-189.2-641.7-218.7-1061v-1.2-.4l-.1-.8v-.6l-.1-.5v-.8-.3l-.1-.9v-.2l-.1-1c-6.2-94-3.6-174.7 4.1-243.5 168.3 195 397 340.2 636.5 429 0 17 1.2 33.6 3.8 50.2l-135.7 1987-10.6.4-140.6 6.3-13.3.6z" fill="#fac300" fill-rule="nonzero"/><path d="M1261.4 2544H1231c-163.3-.2-325.5-7.3-488.1-23-71.9-7-143.6-15.4-215.2-24.5 10.8-19.6 20-32.7 25.4-39.8 239 40 474.6 51.4 666.5 51.4 184.6 0 328.8-10.6 396.8-16.8 4.4 8.1 9 17.4 14 28-54 16.8-114.6 18.2-169.6 21-66.4 3.3-133 3.6-199.4 3.6z" fill="#67505d" fill-rule="nonzero"/><path d="M1659.8 1616.9C1472 1271 1290 1290.3 1290 1290.3l.1 1.2c-188.6 82.6-379.8 157.9-636.1 15.8 0 0-182.8 8.2-316.7 378.1-134 370-155 623.7-28.2 673 89.2 34.7 237.5-195.3 317.8-335l-103.4 428.2c572.8 101.4 1135.5 35.5 1135.5 35.5a53672 53672 0 01-113.3-351.2c89.2 94 187.4 173.8 242.5 142.2 118-67.7 59.2-315.4-128.5-661.2z" fill="#ff2430" fill-rule="nonzero"/><path d="M523.6 2451.6L607 2106l-83.4 345.5zm1236.8-166.4c-56.8 0-139-69.5-214.6-149.3 75.6 79.8 157.8 149.3 214.6 149.3 10.2 0 19.5-2.3 27.9-7l.3-.3-.3.2c-8.4 4.8-17.7 7-28 7zm28.3-7.3l.3-.2-.3.2zm.4-.3h0zm.3-.1l.2-.2-.2.2zm.4-.2l.1-.1h-.1zm.3-.2l.1-.1h-.1zm.3-.2l.1-.1zm.3-.2h.1z" fill="#cfced0" fill-rule="nonzero"/><path d="M1219.6 2508.1c-199.8 0-447-12.4-696-56.5L607 2106c93.3-36.8 152.7-153.3 194-250.9 169.9 27.6 334 105 503.5 105 51.6 0 103.7-7.1 156.6-25 112.8-38.2 190.6-122.7 249-221.2 145.6 292.2 184.2 499.6 80.7 562.6l-.3.2-.3.2h-.1l-.2.2h-.1l-.2.1-.2.2h-.1l-.2.1-.1.1-.3.2-.4.2c-8.4 4.8-17.7 7-28 7-56.7 0-138.9-69.4-214.5-149.2a53672 53672 0 00113.3 351.2s-179.8 21-439.5 21z" fill="#fd3b4e" fill-rule="nonzero"/><path d="M1331.2 1645.3a25.7 25.7 0 01-30.9 19l-134.4-31.7a25.7 25.7 0 01-19.2-31l79.2-334.5a25.7 25.7 0 0130.9-19l134.4 31.7a25.7 25.7 0 0119.1 31l-79 334.5z" fill="#2d2334" fill-rule="nonzero"/><path d="M1599 2266.4s113.2 120.6 207.4 9.5-361.1-789.8-361.1-789.8-31-39-74.3-55c-43.4-16-243.9-60.4 4.7 35.3 0 0-418.7-83.6 13.6 32.6 0 0-359-26 10.4 41.3 0 0-301.5 5-27.3 31.3 0 0 49.1 294.1 226.6 694.8z" fill="#f7a199" fill-rule="nonzero"/><path d="M1000.6 1431c-43.4 16.1-74.4 55.1-74.4 55.1s-718.3 726-624 837.1c94.2 111.1 310-49.3 310-49.3 282-296 395.4-681.3 395.4-681.3 152.8-41.4 84-79.7 84-79.7 57.3-40-21-38.6-39.2-35.2 12.6-2.6 46-2.2 47.9-29.5.4-6-13.7-15.6-19.4-17.2 258.6-133.6-43-13.7-80.3 0z" fill="#f7a199" fill-rule="nonzero"/><path d="M4032.9 390.1a231.6 231.6 0 00-231.5-231.5H2047.8a231.6 231.6 0 00-231.6 231.5v463a231.6 231.6 0 00231.6 231.6h488.9l-277.1 396.9 609.5-396.9h932.3a231.6 231.6 0 00231.5-231.5v-463z" fill="#fff" stroke="#000" stroke-width="4.2"/><text font-family="'BalooTamma-Regular','Baloo Tamma',cursive" font-size="125" transform="translate(1930.8 416.1)">I lef</text><text font-family="'BalooTamma-Regular','Baloo Tamma',cursive" font-size="125" transform="translate(2150.7 416.1)">t an umbr</text><text font-family="'BalooTamma-Regular','Baloo Tamma',cursive" font-size="125" transform="translate(2692.8 416.1)">ella in a c</text><text font-family="'BalooTamma-Regular','Baloo Tamma',cursive" font-size="125" transform="translate(3209.8 416.1)">of<tspan x="125.125px 176.125px" y="0px 0px">fe</tspan>e shop</text><text font-family="'BalooTamma-Regular','Baloo Tamma',cursive" font-size="125" transform="translate(3828 416.1)">.</text><text font-family="'BalooTamma-Regular','Baloo Tamma',cursive" font-size="125" transform="translate(1930.8 541.1)">I will pick it lat</text><text font-family="'BalooTamma-Regular','Baloo Tamma',cursive" font-size="125" transform="translate(2749.5 541.1)">er in the e</text><text font-family="'BalooTamma-Regular','Baloo Tamma',cursive" font-size="125" transform="translate(3312.5 541.1)">v<tspan x="67.5" y="0">e</tspan>ning.</text><text font-family="'BalooTamma-Regular','Baloo Tamma',cursive" font-size="125" transform="translate(1930.8 666.1)">T</text><text font-family="'BalooTamma-Regular','Baloo Tamma',cursive" font-size="125" transform="translate(1996.6 666.1)">ak<tspan x="134.6" y="0">e</tspan> it, pleas</text><text font-family="'BalooTamma-Regular','Baloo Tamma',cursive" font-size="125" transform="translate(2672.3 666.1)">e, t</text><text font-family="'BalooTamma-Regular','Baloo Tamma',cursive" font-size="125" transform="translate(2845.6 666.1)">o the wait</text><text font-family="'BalooTamma-Regular','Baloo Tamma',cursive" font-size="125" transform="translate(3412 666.1)">er<tspan x="113.8" y="0">.</tspan></text><text font-family="'BalooTamma-Regular','Baloo Tamma',cursive" font-size="125" transform="translate(1930.8 791.1)">It was c</text><text font-family="'BalooTamma-Regular','Baloo Tamma',cursive" font-size="125" transform="translate(2356.6 791.1)">of<tspan x="125.125px 176.125px" y="0px 0px">fe</tspan> shop</text><text font-family="'BalooTamma-Regular','Baloo Tamma',cursive" font-size="125" transform="translate(2926 791.1)">&quot;<tspan x="50.625px 120.375px 193.625px 245.5px 296.5px 359.5px 428.375px" y="0px 0px 0px 0px 0px 0px 0px">CoffeTi</tspan>me</text><text font-family="'BalooTamma-Regular','Baloo Tamma',cursive" font-size="125" transform="translate(3561.6 791.1)">&apos;,</text><text font-family="'BalooTamma-Regular','Baloo Tamma',cursive" font-size="125" transform="translate(1930.8 916.1)">Lalala str</text><text font-family="'BalooTamma-Regular','Baloo Tamma',cursive" font-size="125" transform="translate(2450.6 916.1)">, 4</text><text font-family="'BalooTamma-Regular','Baloo Tamma',cursive" font-size="125" transform="translate(2579.8 916.1)">5</text><ellipse cx="5211.3" cy="3099" rx="1690.5" ry="1695.6" fill="#79a3a1" stroke="#000" stroke-width="4.5" transform="matrix(.95097 0 0 .91652 -67 -212.2)"/><path d="M4359.7 3970.2l-2.3-68.4 2.3 68.4z" fill="#e5e4e4" fill-rule="nonzero"/><path d="M4875.3 4170.8c137.5 0 308.7-31.8 524.2-119.1-1.2-41-2.2-73-3-94.2l-581.1 164-14.3-187.4-52.2 177.4-391.5-209.7 2.3 68.4c90.5 63.7 230.6 200.7 515.6 200.6z" fill="#f3c7ab" fill-rule="nonzero"/><path d="M4876.7 2255.8l13-285.4 308.6-113.5-17.5 394.3 251.6 105.4-537.1 276.1-266.8-328.4 248.2-48.5z" fill="#f6967c" fill-rule="nonzero"/><path d="M4877.9 2230.8l11.7-260.4 308.7-113.5-308.7 113.5-11.7 260.4zm308-93.6l12.4-280.3-12.4 280.3z" fill="#eea590" fill-rule="nonzero"/><path d="M4877.9 2230.8c106.3-17.6 210.2-46.5 308-93.6l12.4-280.3-308.7 113.5-11.7 260.4z" fill="#f58562" fill-rule="nonzero"/><path d="M5164 2027.9s-88 165.8-337.6 121.8c-175.8-30.9-188.9-279.3-163.9-525.1 39-382.8 163.9-398.3 351-369.6C5437 1320.1 5164 2028 5164 2028z" fill="#f6967c" fill-rule="nonzero"/><path d="M5291 1294.1c-64.6 57.4-69.7 13.3-132.1 73-64.4 251.6 26.4 303.1 26.4 303.1l-3.3 106.2 40 4.4-26.4 152.7s116.3-129.8 174.2-389.3c43.1-193.6-19-252.8-78.8-250z" fill="#7e3e3a" fill-rule="nonzero"/><path d="M5198.3 1879.8l35.3-232.8s86.7-21.3 91.8 56.5c5 77.8-53 171.7-127.1 176.3z" fill="#f6967c" fill-rule="nonzero"/><path d="M5174 1373s-138.6 100.5-315.3 95l51.7-29.8s-127.8 29.9-296.3-2.7c0 0-2.7-130.5 116.9-209.3 0 0-89.7 59.8-130.5 108.7 0 0 65.3-236.5 386-236.5 320.8 0 320.8 206.6 309.9 293.6-10.9 87-122.3-19-122.3-19z" fill="#7e3e3a" fill-rule="nonzero"/><path d="M4842.4 1878.5a683.2 683.2 0 00-75.2-41.3l5.4 11.8c8.3-21.7 16.3-43.5 23.8-65.5 4-10.9 7.5-22 11.1-33 3.6-11 7.4-22 10.7-33.1a1662 1662 0 0019.3-67c6-22.5 11.4-45.1 15.8-68.2-10.6 21-20 42.2-29 63.7s-17.5 43.1-25.5 64.9c-4.2 10.8-8 21.8-11.8 32.7-3.9 11-7.8 22-11.4 33a2061 2061 0 00-21 66.4l-2.7 9 8.1 2.8c27 9.2 54 18 82.4 23.8z" fill="#df7552" fill-rule="nonzero"/><path d="M4803.3 1639.4l-3 8.2c-2 5.1-5 12.4-9.6 20.1a65 65 0 01-19 21.6c-8 5.6-18.2 7.6-29 6.7l-3.7-.4-4.7-.8c-2.4-.6-4.9-1.2-7.4-2-5-1.6-9.6-3.8-13.6-6.6a51.9 51.9 0 01-16.9-21.6 105 105 0 01-6.4-21c-1-5.3-1.4-8.6-1.4-8.6s-1.4 3-2.6 8.6c-1.3 5.6-2.4 14-.8 24.2a53.3 53.3 0 0035.4 42.9 88 88 0 0010.5 3l4.7.7 5.6.6a55.1 55.1 0 0040.5-12.9 65 65 0 0018.4-30.3 87.2 87.2 0 003.5-23.5c0-5.7-.5-9-.5-9zM5016.3 1656.2s-1 3.1-3 8.2c-2.2 5.1-5.3 12.3-10 20a65 65 0 01-19.1 21.3 43.2 43.2 0 01-29 6.4l-3.9-.4-4.6-.9c-2.4-.6-4.9-1.2-7.4-2-5-1.7-9.5-4-13.5-6.8a51.8 51.8 0 01-16.6-21.8c-3.4-8-5.1-15.6-6.2-21-1-5.4-1.3-8.7-1.3-8.7s-1.5 3-2.8 8.6c-1.3 5.6-2.5 14-1 24.2a53.3 53.3 0 0034.9 43.3c3.3 1.2 6.8 2.2 10.5 3l4.6.9 5.6.6a55.2 55.2 0 0040.7-12.4 65 65 0 0018.7-30 88 88 0 003.8-23.6c0-5.6-.4-8.9-.4-8.9z" fill="#10061b" fill-rule="nonzero"/><path d="M4885.7 1540l9.5.6 22.6 1.8c9 .9 18.8 1.5 29.1 2.7l31.8 3.4c5.4.9 10.8 1.5 16.2 2 5.4 1 10.8 1.5 16 2 5.3 1 10.5 1.5 15.5 2s9.8 1.2 14.4 1.6c9.4.4 17.3 1.5 23.3 1.4 5.9.2 9.7-.1 9.7-.1s-1.7-3.2-5.3-8c-3.6-4.9-8.9-11.9-16.8-18.2-3.9-3.2-8.1-6.7-13-9.8-5-3-10.3-6-16-8.7a173 173 0 00-18.5-6.6c-6.4-2-13.2-2.8-20-4-6.8-.4-13.6-1.2-20.4-.8-6.8.4-13.4 1-19.7 2.5a106 106 0 00-33 12.4 83.8 83.8 0 00-11.6 8.3c-3.4 2.4-5.9 5.4-8 7.6a42 42 0 00-5.8 8zM4671 1532.6l8.5.4c5.3.4 12.2.7 20.1 1.5 8 .8 16.6 1.4 25.6 2.6 4.5.3 9.1 1.2 13.8 1.6l14 2 14.1 2c4.7 1 9.4 1.4 14 2.2 4.6 1 9.2 1.5 13.7 2 4.4.7 8.7 1.5 12.8 1.9 8.3.5 15.3 1.8 20.7 2 5.3.2 8.7 0 8.7 0s-1.3-3-4.3-7.5c-3-4.4-7.3-11-14-17-3.4-3-7.1-6.4-11.3-9.4-4.3-2.9-9-5.7-14-8.4-5.1-2.6-10.7-4.6-16.4-6.6-5.7-2-11.9-2.8-17.9-4.1a110.2 110.2 0 00-36.4 1 89.3 89.3 0 00-29.6 11.6 72 72 0 00-17.2 14.9c-3.5 4.3-4.8 7.3-4.8 7.3z" fill="#2d2334" fill-rule="nonzero"/><path d="M4737.8 1924l280.6 4.8s-3.2 120.2-147.8 115.2c-130.3-4.6-132.8-120-132.8-120z" fill="#d25756" fill-rule="nonzero"/><path d="M4835.5 2017.2c24.3-50 106.8-63.7 153.8-42.6 4.7 2.1 9 4.9 12.9 8a128 128 0 0016.2-53.8l-280.6-4.8s2 89.7 91.9 114c.6-7 2.5-14 5.8-20.8z" fill="#600916" fill-rule="nonzero"/><path d="M5223 1840.5c8.2-.3 16.2-1.9 24.2-4.7a56 56 0 0011.6-5.7c3.7-2.6 7.8-5.3 10.6-10.1 3-4.5 4.9-11 3.8-16.9-.3-1.6-.1-2.7-1-4.8l-1-2.8c-.7-2-1-3.5-2.1-5.8a132 132 0 00-4-7.1c-1.7-2.2-3.4-4.3-5.5-6.3-2.4-1.9-4.8-3.7-8.1-4.8-3.3-1.2-6-2.1-11.6-1.5l13 11.1 2.6-29c1.2-9.6 1.9-19.3 3.8-28.6.7-4.7 1.6-9.3 3-13.6 1.2-4.2 2.6-8.4 4.7-11.3 1-1.4 2-2.4 3.3-3 1.3-.8 3-.8 5.1-.4 4.2 1 8.6 3.8 12.8 6.6-2.3-4.5-5-9.2-9.9-12.7a15.4 15.4 0 00-9.4-2.9 17 17 0 00-9.9 3.7 43.5 43.5 0 00-11.2 14c-2.6 4.9-4.7 9.9-6.5 14.9a227.8 227.8 0 00-10.1 61.4l13 11.1c-1.8.3-.4 0-.1.3l2 1 2.7 2.3 2.2 3c.9 1 1.7 3.3 2.6 5l1.3 2.6.3 1 .7 2.6-.6 3.2c-.3 1.2-1 2.4-1.9 3.7-.6 1.4-2 2.6-3 4-2.3 2.4-5 4.8-8 7.2-5.9 4.7-12.5 9-19.4 13.3z" fill="#df7552" fill-rule="nonzero"/><path d="M4200.2 3426s155.3 32.9 224-518.6l-197-143.4s-93.4 173.9-141.9 324.9c-48.4 151 114.9 337.1 114.9 337.1z" fill="#f6967c" fill-rule="nonzero"/><path d="M4205.2 3426.4c16 0 68.3-9.2 121-119-2.4-155.8-3-322 .9-470.6l-99.9-72.8s-93.4 173.9-141.9 324.9c-6.2 19.5-9 39.5-9 59.7 0 136.2 123.9 277.4 123.9 277.4s1.7.4 5 .4z" fill="#f58562" fill-rule="nonzero"/><path d="M4400.4 2358.6s-157.7 235.8-210.8 430.3c0 0 97.5 89.2 202.4 106.7 104.9 17.6 8.4-537 8.4-537z" fill="#eab200" fill-rule="nonzero"/><path d="M4186.6 2764.4s171 163.7 390.6 221l-18.8 58s-181.5 11.3-423-187l51.2-92z" fill="#bd0a29" fill-rule="nonzero"/><path d="M3903 2538.3a30.3 30.3 0 0039.7 16.3l150.4-62.7a30.3 30.3 0 0016.3-39.7L3953.2 2078a30.3 30.3 0 00-39.7-16.3l-150.4 62.8a30.3 30.3 0 00-16.2 39.7l156.2 374.1z" fill="#2d2334" fill-rule="nonzero"/><g><path d="M4321.6 3253.8s.7 204.6-178.4 184.7c-179-19.9-346-1016.5-346-1016.5s-5.3-61.4 20-112.6c25.5-51.2 168-261.3 25.8 35.7 0 0 305.4-430.5 15.5 40.9 0 0 300.6-328.3 25.7 46 0 0 275.3-251.6 51.1 4.9 0 0 205.6 306.1 386.3 816.9z" fill="#f6967c" fill-rule="nonzero"/></g><g><path d="M5204.6 2241.8l-229 146-100.8 195.7-100.4-331.8s-278.9-.8-387.5 122.3c-108.7 123.1-42.7 1520.7-42.7 1520.7l404.7 216.8 52.2-177.4 14.3 187.4 623.3-176s129-1498.5 15.2-1595.5c-95.8-81.5-249.3-108.2-249.3-108.2z" fill="#efb800" fill-rule="nonzero"/></g><g><path d="M4874.8 2583.5l94.2-206.6 249-220.4 68.5 95.2-248 270.2-61.8-126-101.9 187.6z" fill="#bd0a29" fill-rule="nonzero"/></g><g><path d="M4762.1 2208.7l94.4 177.4 15 194.1-43.6-153.2-69 58.3-55.4-228.2 58.6-48.4z" fill="#bd0a29" fill-rule="nonzero"/></g><g><path d="M4885.5 2655.3a30.7 30.7 0 11-61.3.2 30.7 30.7 0 0161.3-.2z" fill="#bd0a29" fill-rule="nonzero"/></g><g><path d="M4824.6 3831.7a30.7 30.7 0 11-61.3.2 30.7 30.7 0 0161.3-.2z" fill="#bd0a29" fill-rule="nonzero"/></g><g><path d="M4830.5 3541a30.7 30.7 0 11-61.3.1 30.7 30.7 0 0161.3-.2z" fill="#bd0a29" fill-rule="nonzero"/></g><g><path d="M4829.5 3238.5a30.7 30.7 0 11-61.4.2 30.7 30.7 0 0161.4-.2z" fill="#bd0a29" fill-rule="nonzero"/></g><g><path d="M4853.5 2912.9a30.7 30.7 0 11-61.3.2 30.7 30.7 0 0161.3-.2z" fill="#bd0a29" fill-rule="nonzero"/></g><g><path d="M4647 2666.3l-245.7-46.9-6.5 102.3 252.4 33.3-.3-88.7z" fill="#c80300" fill-rule="nonzero"/></g><g><path d="M5498.2 2356.7s819.9 501.9 766.1 747.5c-53.7 245.6-645.2 772.6-740.7 745.6-95.6-27-95.7-81.5-95.7-81.5s-333.4 219.3-13.8-34c0 0-401.7 171.8-13.8-61.3 0 0-456.5 97-.2-54.6 0 0-354.7-53.3 6.7-47.7 0 0 68.1-7 129.9 108.7l345.8-567.1s-416.8-271.4-505.8-366.6c-88.9-95.1 121.5-389 121.5-389z" fill="#f6967c" fill-rule="nonzero"/></g><g><path d="M5569.5 2899l-.3-.2.3.2zm-.4-.3zm-70.9-542z" fill="#eea590" fill-rule="nonzero"/></g><g><path d="M5500 2848.2c-53.1-39.8-97.7-75.7-121.4-100.5 23.8 24.8 68.3 60.7 121.4 100.5zm-121.4-100.5l-.5-.5.5.5zm-.5-.6l-.5-.5.5.5zm-.6-.5l-.5-.6.5.6zm-.5-.6l-.3-.3c-15.5-16.6-21.9-39.3-21.9-65.4 0 26.1 6.4 48.8 22 65.4l.2.3z" fill="#a67976" fill-rule="nonzero"/></g><g><path d="M5774.2 3040.4c11.2-10.8 22.2-21.6 32.7-32.6 77.7-80.7 154.2-186 179.9-299.7-218.2-185.5-484.8-349-488.6-351.4 0 0-143.3 200.1-143.4 323.6 0 26.1 6.4 48.8 22 65.4l.2.3.5.6.6.5.5.6c23.7 24.8 68.3 60.7 121.4 100.5a4216.7 4216.7 0 0069.2 50.6l.3.2a8601.7 8601.7 0 00204.7 141.4z" fill="#f58562" fill-rule="nonzero"/></g><g><path d="M5286.5 2251.7s131.4 37 264.5 103.1c133.2 66 323 239.3 323 239.3s-60.5 261-244.2 394.6c0 0-394.5-223.7-394.8-310.7-.2-86.9 51.5-426.3 51.5-426.3z" fill="#eab200" fill-rule="nonzero"/></g><g><path d="M5848.3 2563.5s-70.7 250.8-239 425.2l46.3 45.9s168.4-87.5 285-410l-92.3-61.1z" fill="#bd0a29" fill-rule="nonzero"/></g><g><path d="M4442.9 1874.5c0-94.3-71-170.8-158.3-170.8H3007.2c-87.4 0-158.3 76.5-158.3 170.8v341.4c0 94.3 71 170.8 158.3 170.8h359.7l-199.2 292.7 438.3-292.7h678.6c87.3 0 158.3-76.5 158.3-170.8v-341.4z" fill="#fcfcfc" stroke="#000" stroke-width="6.1" transform="matrix(-.7064 0 0 .65495 6072 92)"/></g><g><text font-family="'BalooTamma-Regular','Baloo Tamma',cursive" font-size="125" transform="translate(3098.3 1396.3)">I will help y</text><text font-family="'BalooTamma-Regular','Baloo Tamma',cursive" font-size="125" transform="translate(3733.6 1396.3)">ou,</text><g><text font-family="'BalooTamma-Regular','Baloo Tamma',cursive" font-size="125" transform="translate(3098.3 1521.3)">don</text><text font-family="'BalooTamma-Regular','Baloo Tamma',cursive" font-size="125" transform="translate(3313.9 1521.3)">&apos;t wor</text><text font-family="'BalooTamma-Regular','Baloo Tamma',cursive" font-size="125" transform="translate(3638.5 1521.3)">r<tspan x="53.4" y="0">y</tspan> :)</text></g></g><g><path d="M1137.6 470s-14.8 169.2-116.9 240c-102 70.6-231.6 73.8-231.6 73.8S765.6 915.5 746 884c0 0-45-71.7-66.6-126.8-21.7-55.1 28.4-349.4 225.5-353 197.2-3.7 232.6 65.8 232.6 65.8z" fill="#eab200" fill-rule="nonzero"/></g></svg>